<?xml version="1.0" encoding="UTF-8"?>
<svg viewBox="0 0 1200 500" xmlns="http://www.w3.org/2000/svg">
  <defs>
    <radialGradient id="bgGlow" cx="50%" cy="0%" r="75%">
      <stop offset="0%" stop-color="#D4A843" stop-opacity="0.05"/>
      <stop offset="55%" stop-color="#060608" stop-opacity="0"/>
    </radialGradient>
    <linearGradient id="cardBorder" x1="0%" y1="0%" x2="0%" y2="100%">
      <stop offset="0%" stop-color="#D4A843" stop-opacity="0.28"/>
      <stop offset="100%" stop-color="#D4A843" stop-opacity="0.08"/>
    </linearGradient>
    <filter id="cardLift" x="-10%" y="-10%" width="120%" height="125%">
      <feDropShadow dx="0" dy="6" stdDeviation="10" flood-color="#000000" flood-opacity="0.45"/>
    </filter>
  </defs>

  <rect width="1200" height="500" fill="#060608"/>
  <rect width="1200" height="500" fill="url(#bgGlow)"/>
  <rect x="0" y="0" width="1200" height="2" fill="#5A7894" opacity="0.55"/>

  <g transform="translate(60, 50)">
    <path d="M22 8 A10 10 0 1 0 22 24" fill="none" stroke="#D4A843" stroke-width="2.5" stroke-linecap="round" stroke-linejoin="round"/>
    <path d="M10 24 L16 8 L22 24" fill="none" stroke="#D4A843" stroke-width="2.5" stroke-linecap="round" stroke-linejoin="round"/>
    <path d="M12.2 18 L19.8 18" fill="none" stroke="#D4A843" stroke-width="2.5" stroke-linecap="round" stroke-linejoin="round"/>
  </g>
  <text x="100" y="73" font-family="'Geist', 'Inter', sans-serif" font-size="13" font-weight="600" letter-spacing="2.8" fill="#F0F0F2">CLEARAUTOMATIONS</text>
  <text x="1140" y="73" font-family="'Geist', sans-serif" font-size="10.5" font-weight="500" letter-spacing="2" fill="#D4A843" text-anchor="end">HVAC CONTRACTOR · PHASE 1</text>

  <text x="60" y="150" font-family="'Instrument Serif', Georgia, serif" font-size="42" font-weight="400" fill="#F0F0F2" letter-spacing="-0.5">No more missed calls.</text>
  <text x="60" y="184" font-family="'Geist', sans-serif" font-size="14.5" font-weight="400" fill="#9A9AAA">After-hours, weekends, emergencies — every call gets a callback in under 2 minutes.</text>

  <g filter="url(#cardLift)">
    <g transform="translate(60, 230)">
      <rect width="200" height="220" rx="14" fill="#0E0E12" stroke="url(#cardBorder)" stroke-width="1"/>
      <rect x="20" y="22" width="56" height="22" rx="11" fill="rgba(212,168,67,0.10)" stroke="rgba(212,168,67,0.32)" stroke-width="0.6"/>
      <text x="48" y="37" font-family="'Geist', sans-serif" font-size="10" font-weight="600" letter-spacing="1.6" fill="#D4A843" text-anchor="middle">STEP 01</text>
      <g transform="translate(20, 64)">
        <path d="M2 6 Q2 1 7 1 L13 1 L17 9 L13 13 Q16 19 22 22 L26 18 L33 22 Q33 27 28 27 Q14 27 7 20 Q2 12 2 6 Z" fill="none" stroke="#D4A843" stroke-width="1.6"/>
      </g>
      <text x="20" y="146" font-family="'Instrument Serif', Georgia, serif" font-size="18" font-weight="400" fill="#F0F0F2" letter-spacing="-0.2">Missed Call</text>
      <text x="20" y="174" font-family="'Geist', sans-serif" font-size="12.5" fill="#9A9AAA">After-hours,</text>
      <text x="20" y="192" font-family="'Geist', sans-serif" font-size="12.5" fill="#9A9AAA">weekend, or</text>
      <text x="20" y="210" font-family="'Geist', sans-serif" font-size="12.5" fill="#9A9AAA">emergency call.</text>
    </g>

    <g transform="translate(280, 230)">
      <rect width="200" height="220" rx="14" fill="#0E0E12" stroke="url(#cardBorder)" stroke-width="1"/>
      <rect x="20" y="22" width="56" height="22" rx="11" fill="rgba(212,168,67,0.10)" stroke="rgba(212,168,67,0.32)" stroke-width="0.6"/>
      <text x="48" y="37" font-family="'Geist', sans-serif" font-size="10" font-weight="600" letter-spacing="1.6" fill="#D4A843" text-anchor="middle">STEP 02</text>
      <g transform="translate(20, 64)">
        <path d="M0 7 Q0 0 7 0 L21 0 Q28 0 28 7 L28 14 Q28 20 22 20 L14 20 L10 25 L10 20 L7 20 Q0 20 0 14 Z" fill="none" stroke="#D4A843" stroke-width="1.6"/>
        <circle cx="10" cy="10" r="1.4" fill="#D4A843"/>
        <circle cx="14" cy="10" r="1.4" fill="#D4A843"/>
        <circle cx="18" cy="10" r="1.4" fill="#D4A843"/>
      </g>
      <text x="20" y="146" font-family="'Instrument Serif', Georgia, serif" font-size="18" font-weight="400" fill="#F0F0F2" letter-spacing="-0.2">AI Callback</text>
      <text x="20" y="174" font-family="'Geist', sans-serif" font-size="12.5" fill="#9A9AAA">Triages urgency,</text>
      <text x="20" y="192" font-family="'Geist', sans-serif" font-size="12.5" fill="#9A9AAA">books on-site or</text>
      <text x="20" y="210" font-family="'Geist', sans-serif" font-size="12.5" fill="#9A9AAA">routes to dispatch.</text>
    </g>

    <g transform="translate(500, 230)">
      <rect width="200" height="220" rx="14" fill="#0E0E12" stroke="url(#cardBorder)" stroke-width="1"/>
      <rect x="20" y="22" width="56" height="22" rx="11" fill="rgba(212,168,67,0.10)" stroke="rgba(212,168,67,0.32)" stroke-width="0.6"/>
      <text x="48" y="37" font-family="'Geist', sans-serif" font-size="10" font-weight="600" letter-spacing="1.6" fill="#D4A843" text-anchor="middle">STEP 03</text>
      <g transform="translate(20, 64)">
        <ellipse cx="14" cy="3" rx="13" ry="3" fill="none" stroke="#D4A843" stroke-width="1.5"/>
        <path d="M1 3 L1 22 Q1 25 14 25 Q27 25 27 22 L27 3" fill="none" stroke="#D4A843" stroke-width="1.5"/>
        <path d="M1 12 Q1 15 14 15 Q27 15 27 12" fill="none" stroke="#D4A843" stroke-width="1.5"/>
      </g>
      <text x="20" y="146" font-family="'Instrument Serif', Georgia, serif" font-size="18" font-weight="400" fill="#F0F0F2" letter-spacing="-0.2">CRM Pipeline</text>
      <text x="20" y="174" font-family="'Geist', sans-serif" font-size="12.5" fill="#9A9AAA">HubSpot stages:</text>
      <text x="20" y="192" font-family="'Geist', sans-serif" font-size="12.5" fill="#9A9AAA">new, quoted, won,</text>
      <text x="20" y="210" font-family="'Geist', sans-serif" font-size="12.5" fill="#9A9AAA">lost (with reason).</text>
    </g>

    <g transform="translate(720, 230)">
      <rect width="200" height="220" rx="14" fill="#0E0E12" stroke="url(#cardBorder)" stroke-width="1"/>
      <rect x="20" y="22" width="56" height="22" rx="11" fill="rgba(212,168,67,0.10)" stroke="rgba(212,168,67,0.32)" stroke-width="0.6"/>
      <text x="48" y="37" font-family="'Geist', sans-serif" font-size="10" font-weight="600" letter-spacing="1.6" fill="#D4A843" text-anchor="middle">STEP 04</text>
      <g transform="translate(20, 64)">
        <circle cx="14" cy="14" r="13" fill="none" stroke="#D4A843" stroke-width="1.6"/>
        <line x1="14" y1="6" x2="14" y2="14" stroke="#D4A843" stroke-width="1.6" stroke-linecap="round"/>
        <line x1="14" y1="14" x2="21" y2="17" stroke="#D4A843" stroke-width="1.6" stroke-linecap="round"/>
      </g>
      <text x="20" y="146" font-family="'Instrument Serif', Georgia, serif" font-size="18" font-weight="400" fill="#F0F0F2" letter-spacing="-0.2">Estimate Follow-up</text>
      <text x="20" y="174" font-family="'Geist', sans-serif" font-size="12.5" fill="#9A9AAA">Multi-touch email +</text>
      <text x="20" y="192" font-family="'Geist', sans-serif" font-size="12.5" fill="#9A9AAA">SMS sequence,</text>
      <text x="20" y="210" font-family="'Geist', sans-serif" font-size="12.5" fill="#9A9AAA">TCPA-aware.</text>
    </g>

    <g transform="translate(940, 230)">
      <rect width="200" height="220" rx="14" fill="#0E0E12" stroke="url(#cardBorder)" stroke-width="1"/>
      <rect x="20" y="22" width="56" height="22" rx="11" fill="rgba(212,168,67,0.10)" stroke="rgba(212,168,67,0.32)" stroke-width="0.6"/>
      <text x="48" y="37" font-family="'Geist', sans-serif" font-size="10" font-weight="600" letter-spacing="1.6" fill="#D4A843" text-anchor="middle">STEP 05</text>
      <g transform="translate(20, 64)">
        <circle cx="14" cy="14" r="13" fill="#D4A843" opacity="0.16"/>
        <path d="M6 14 L12 21 L23 8" fill="none" stroke="#D4A843" stroke-width="2.2" stroke-linecap="round" stroke-linejoin="round"/>
      </g>
      <text x="20" y="146" font-family="'Instrument Serif', Georgia, serif" font-size="18" font-weight="400" fill="#F0F0F2" letter-spacing="-0.2">Won Job + Review</text>
      <text x="20" y="174" font-family="'Geist', sans-serif" font-size="12.5" fill="#9A9AAA">Maintenance-plan</text>
      <text x="20" y="192" font-family="'Geist', sans-serif" font-size="12.5" fill="#9A9AAA">reactivation,</text>
      <text x="20" y="210" font-family="'Geist', sans-serif" font-size="12.5" fill="#9A9AAA">review request.</text>
    </g>
  </g>

  <line x1="263" y1="340" x2="277" y2="340" stroke="#D4A843" stroke-width="1.5" stroke-linecap="round"/>
  <polygon points="275,336 281,340 275,344" fill="#D4A843"/>
  <line x1="483" y1="340" x2="497" y2="340" stroke="#D4A843" stroke-width="1.5" stroke-linecap="round"/>
  <polygon points="495,336 501,340 495,344" fill="#D4A843"/>
  <line x1="703" y1="340" x2="717" y2="340" stroke="#D4A843" stroke-width="1.5" stroke-linecap="round"/>
  <polygon points="715,336 721,340 715,344" fill="#D4A843"/>
  <line x1="923" y1="340" x2="937" y2="340" stroke="#D4A843" stroke-width="1.5" stroke-linecap="round"/>
  <polygon points="935,336 941,340 935,344" fill="#D4A843"/>

  <line x1="60" y1="475" x2="1140" y2="475" stroke="rgba(212,168,67,0.16)" stroke-width="0.6"/>
  <text x="1140" y="495" font-family="'Instrument Serif', Georgia, serif" font-size="14" font-style="italic" fill="#9A9AAA" text-anchor="end">Compliance-aware automation, ServiceTitan and Jobber friendly.</text>
</svg>
